/* XPM */
static char * gwget_xpm[] = {
"32 32 459 2",
"  	c None",
". 	c #1A252E",
"+ 	c #1A2833",
"@ 	c #14212D",
"# 	c #101F2C",
"$ 	c #0D1E30",
"% 	c #09192A",
"& 	c #394C56",
"* 	c #5C7C8F",
"= 	c #7EAFCF",
"- 	c #89CBFB",
"; 	c #78BFFA",
"> 	c #62B0F9",
", 	c #4A9FF5",
"' 	c #2E74C1",
") 	c #19467B",
"! 	c #0C2444",
"~ 	c #141F1A",
"{ 	c #607F7D",
"] 	c #99C5D0",
"^ 	c #AADFEE",
"/ 	c #B1E4FA",
"( 	c #A2DBE6",
"_ 	c #8FCFE3",
": 	c #7BC1E5",
"< 	c #62B0F5",
"[ 	c #4399F3",
"} 	c #3181DF",
"| 	c #2160B2",
"1 	c #103469",
"2 	c #040F20",
"3 	c #0C0D0C",
"4 	c #8BA78E",
"5 	c #BCDFC8",
"6 	c #BAE3CB",
"7 	c #BAE3CC",
"8 	c #B3E1C8",
"9 	c #A7DBB6",
"0 	c #8FD0A2",
"a 	c #94D1AB",
"b 	c #79C2B5",
"c 	c #52A7E2",
"d 	c #388EEB",
"e 	c #2A76D4",
"f 	c #1D5BB4",
"g 	c #0D367A",
"h 	c #010610",
"i 	c #07090B",
"j 	c #518169",
"k 	c #A5D8B1",
"l 	c #D0EBD1",
"m 	c #CEEBCF",
"n 	c #CBE9CC",
"o 	c #BFE4C1",
"p 	c #AEDDB0",
"q 	c #93D195",
"r 	c #7DC881",
"s 	c #84CB88",
"t 	c #56AEBE",
"u 	c #4197F1",
"v 	c #2E7EDC",
"w 	c #2165C2",
"x 	c #134AA5",
"y 	c #05225D",
"z 	c #00050F",
"A 	c #445F71",
"B 	c #99CCDB",
"C 	c #BAE2C0",
"D 	c #D1ECD3",
"E 	c #CDEACF",
"F 	c #A1D7A3",
"G 	c #94D1A2",
"H 	c #92D193",
"I 	c #85CC97",
"J 	c #70C38A",
"K 	c #59B1BA",
"L 	c #479DF3",
"M 	c #3183E1",
"N 	c #2369C6",
"O 	c #154FAB",
"P 	c #073186",
"Q 	c #011643",
"R 	c #16242E",
"S 	c #628EAA",
"T 	c #9CD5C1",
"U 	c #CBE9CE",
"V 	c #CFEBD1",
"W 	c #CBE9CD",
"X 	c #C3E6C5",
"Y 	c #AADBAB",
"Z 	c #AFDEB0",
"` 	c #98D49A",
" .	c #84CAA7",
"..	c #64B5DD",
"+.	c #499EF4",
"@.	c #3184E2",
"#.	c #246AC7",
"$.	c #1650AC",
"%.	c #073693",
"&.	c #02226A",
"*.	c #000A1E",
"=.	c #2A445B",
"-.	c #6DA8B6",
";.	c #AEDCBF",
">.	c #C7E8C9",
",.	c #CAE9CC",
"'.	c #C6E7C8",
").	c #B6E0B7",
"!.	c #B2DEB3",
"~.	c #ABDCAC",
"{.	c #95D296",
"].	c #70BF76",
"^.	c #4FABA4",
"/.	c #469BF3",
"(.	c #3082E0",
"_.	c #2368C5",
":.	c #154EAA",
"<.	c #063592",
"[.	c #022B85",
"}.	c #01143E",
"|.	c #2E5171",
"1.	c #73B8BF",
"2.	c #AFDCB7",
"3.	c #C0E5C2",
"4.	c #C3E6C4",
"5.	c #C2E6C4",
"6.	c #B5E0B6",
"7.	c #A3D7A4",
"8.	c #A0D6A0",
"9.	c #7DC389",
"0.	c #68B7AD",
"a.	c #5AADE2",
"b.	c #3F96F0",
"c.	c #2E7DDA",
"d.	c #2064C0",
"e.	c #134AA6",
"f.	c #063390",
"g.	c #05349F",
"h.	c #021A51",
"i.	c #24486C",
"j.	c #67B2C0",
"k.	c #A4D6AD",
"l.	c #B7E0B8",
"m.	c #B4E0B5",
"n.	c #AEDDAF",
"o.	c #9DD3A0",
"p.	c #74BC90",
"q.	c #7AC1D3",
"r.	c #73BCF8",
"s.	c #4FA3F6",
"t.	c #368BE9",
"u.	c #2973D1",
"v.	c #1C5BB8",
"w.	c #0F439E",
"x.	c #073490",
"y.	c #0F44A7",
"z.	c #041E59",
"A.	c #1B426A",
"B.	c #56A6C7",
"C.	c #94CEA3",
"D.	c #A8DAA8",
"E.	c #A8D9A8",
"F.	c #9DD19E",
"G.	c #96CD98",
"H.	c #9ED5A0",
"I.	c #7EBF93",
"J.	c #75BCC9",
"K.	c #77BEFA",
"L.	c #5BACF8",
"M.	c #3E95F0",
"N.	c #2F7EDD",
"O.	c #1751AE",
"P.	c #0A3995",
"Q.	c #093896",
"R.	c #104BAC",
"S.	c #042268",
"T.	c #173D68",
"U.	c #4394CD",
"V.	c #65AC8B",
"W.	c #98D399",
"X.	c #8DCA96",
"Y.	c #73B7A1",
"Z.	c #72B7B2",
"`.	c #7EC089",
" +	c #519F97",
".+	c #6CB7F6",
"++	c #59AAF8",
"@+	c #3285E3",
"#+	c #2770CD",
"$+	c #1C5BB7",
"%+	c #1045A1",
"&+	c #063290",
"*+	c #10459D",
"=+	c #104EB1",
"-+	c #031E5E",
";+	c #070707",
">+	c #1A3658",
",+	c #2B75C5",
"'+	c #388AC5",
")+	c #80C483",
"!+	c #78BE88",
"~+	c #5DA9A8",
"{+	c #5DA8B5",
"]+	c #57A36A",
"^+	c #499A93",
"/+	c #4A9EEB",
"(+	c #3E94EF",
"_+	c #3385E3",
":+	c #1E60BC",
"<+	c #144CA8",
"[+	c #093894",
"}+	c #083595",
"|+	c #1655A5",
"1+	c #0E47AB",
"2+	c #011B58",
"3+	c #2E2E2E",
"4+	c #636363",
"5+	c #989898",
"6+	c #ABABAB",
"7+	c #4B586B",
"8+	c #1D559F",
"9+	c #2B77D5",
"0+	c #49957A",
"a+	c #73C078",
"b+	c #71C079",
"c+	c #53A36A",
"d+	c #318482",
"e+	c #3F9262",
"f+	c #42996F",
"g+	c #32859B",
"h+	c #2770C4",
"i+	c #1E5FBC",
"j+	c #144DA9",
"k+	c #0B3B97",
"l+	c #053292",
"m+	c #11499F",
"n+	c #1A5FAE",
"o+	c #083798",
"p+	c #01133F",
"q+	c #696969",
"r+	c #E5E5E5",
"s+	c #E2E2E2",
"t+	c #DDDDDD",
"u+	c #D5D5D5",
"v+	c #818385",
"w+	c #1B3C6E",
"x+	c #1D5BB5",
"y+	c #2167B6",
"z+	c #2C7681",
"A+	c #4FA267",
"B+	c #59B35C",
"C+	c #328373",
"D+	c #2874B4",
"E+	c #257371",
"F+	c #1E6779",
"G+	c #1A5BA0",
"H+	c #1248A2",
"I+	c #093995",
"J+	c #0D429D",
"K+	c #1C61AA",
"L+	c #134FAF",
"M+	c #092D80",
"N+	c #161921",
"O+	c #818181",
"P+	c #F5F5F5",
"Q+	c #EAEAEA",
"R+	c #BABABA",
"S+	c #424C5D",
"T+	c #113D86",
"U+	c #1A59AC",
"V+	c #1E618D",
"W+	c #338660",
"X+	c #2E8949",
"Y+	c #27816D",
"Z+	c #248552",
"`+	c #1C7953",
" @	c #17714B",
".@	c #0C4C66",
"+@	c #063A7E",
"@@	c #0C419A",
"#@	c #195CA8",
"$@	c #1A5DAD",
"%@	c #08389F",
"&@	c #323E5B",
"*@	c #717171",
"=@	c #464646",
"-@	c #7D7D7D",
";@	c #F6F6F6",
">@	c #E1E1E1",
",@	c #DADADA",
"'@	c #21314F",
")@	c #0A388F",
"!@	c #0D409B",
"~@	c #0F449E",
"{@	c #124B88",
"]@	c #1C6B49",
"^@	c #269F22",
"/@	c #20991C",
"(@	c #1A9017",
"_@	c #158713",
":@	c #11721D",
"<@	c #176A42",
"[@	c #1B6279",
"}@	c #1B5EA4",
"|@	c #0C46B4",
"1@	c #142858",
"2@	c #7A7B7E",
"3@	c #B2B2B2",
"4@	c #9C9C9C",
"5@	c #414141",
"6@	c #787878",
"7@	c #EEEEEE",
"8@	c #F7F7F7",
"9@	c #E9E9E9",
"0@	c #D7D7D7",
"a@	c #808183",
"b@	c #0C1E43",
"c@	c #042C84",
"d@	c #053191",
"e@	c #06328C",
"f@	c #136C34",
"g@	c #188D15",
"h@	c #158712",
"i@	c #12800F",
"j@	c #158015",
"k@	c #248926",
"l@	c #2B8B2F",
"m@	c #217B32",
"n@	c #0D4E5E",
"o@	c #041F51",
"p@	c #636467",
"q@	c #A8A8A8",
"r@	c #B9B9B9",
"s@	c #D1D1D1",
"t@	c #A4A4A4",
"u@	c #393939",
"v@	c #727272",
"w@	c #ECECEC",
"x@	c #9A9B9D",
"y@	c #252F47",
"z@	c #092B77",
"A@	c #043382",
"B@	c #0F701D",
"C@	c #0F7B0E",
"D@	c #157F15",
"E@	c #238926",
"F@	c #278A2A",
"G@	c #207F22",
"H@	c #116A13",
"I@	c #0A480C",
"J@	c #1C2C27",
"K@	c #76777A",
"L@	c #A6A6A6",
"M@	c #ADADAD",
"N@	c #C6C6C6",
"O@	c #D8D8D8",
"P@	c #D6D6D6",
"Q@	c #A5A5A5",
"R@	c #484848",
"S@	c #6E6E6E",
"T@	c #D9D9D9",
"U@	c #EDEDED",
"V@	c #DBDBDB",
"W@	c #68696C",
"X@	c #323E51",
"Y@	c #1B4A20",
"Z@	c #0C540C",
"`@	c #0B550B",
" #	c #0C550D",
".#	c #0B500C",
"+#	c #124511",
"@#	c #243B24",
"##	c #4C504C",
"$#	c #888888",
"%#	c #BFBFBF",
"&#	c #D2D2D2",
"*#	c #B3B3B3",
"=#	c #646464",
"-#	c #D4D4D4",
";#	c #B5B5B5",
">#	c #8A8A8A",
",#	c #6C6D6C",
"'#	c #5E655E",
")#	c #585F58",
"!#	c #5D5D5D",
"~#	c #707070",
"{#	c #8E8E8E",
"]#	c #D0D0D0",
"^#	c #DCDCDC",
"/#	c #EBEBEB",
"(#	c #E3E3E3",
"_#	c #D3D3D3",
":#	c #CECECE",
"<#	c #C7C7C7",
"[#	c #C0C0C0",
"}#	c #BCBCBC",
"|#	c #C3C3C3",
"1#	c #CDCDCD",
"2#	c #E8E8E8",
"3#	c #626262",
"4#	c #494949",
"5#	c #DEDEDE",
"6#	c #E7E7E7",
"7#	c #E6E6E6",
"8#	c #E4E4E4",
"9#	c #606060",
"0#	c #1E1E1E",
"a#	c #E0E0E0",
"b#	c #E9EAEA",
"c#	c #E9EBE9",
"d#	c #282828",
"e#	c #979797",
"f#	c #DFDFDF",
"g#	c #DFE4DF",
"h#	c #C7DBC6",
"i#	c #B2D3B0",
"j#	c #AECDB1",
"k#	c #5B5B5B",
"l#	c #353535",
"m#	c #929292",
"n#	c #F2F2F2",
"o#	c #BCD3BF",
"p#	c #76B876",
"q#	c #61B160",
"r#	c #8DBF91",
"s#	c #595959",
"t#	c #343434",
"u#	c #969696",
"v#	c #D6E1D8",
"w#	c #B3CFB4",
"x#	c #B7CDB8",
"y#	c #C3CDC4",
"z#	c #474747",
"A#	c #2D2D2D",
"B#	c #9A9A9A",
"C#	c #C6C7C6",
"D#	c #BBBCBB",
"E#	c #8C8C8C",
"F#	c #4E4E4E",
"G#	c #272727",
"H#	c #232323",
"I#	c #BBBBBB",
"J#	c #AFAFAF",
"K#	c #9D9D9D",
"L#	c #747474",
"M#	c #363636",
"N#	c #949494",
"O#	c #C8C8C8",
"P#	c #A1A1A1",
"Q#	c #838383",
"R#	c #666666",
"S#	c #3F3F3F",
"T#	c #9E9E9E",
"U#	c #B0B0B0",
"V#	c #8F8F8F",
"W#	c #7B7B7B",
"X#	c #323232",
"Y#	c #5C5C5C",
"Z#	c #4A4A4A",
"                          . + @ # $ %                           ",
"                      & * = - ; > , ' ) !                       ",
"                  ~ { ] ^ / ( _ : < [ } | 1 2                   ",
"                3 4 5 6 7 8 9 0 a b c d e f g h                 ",
"              i j k l m n o p q r s t u v w x y z               ",
"              A B C D D E F G H I J K L M N O P Q               ",
"            R S T U V V W X Y Z `  ...+.@.#.$.%.&.*.            ",
"            =.-.;.>.,.,.'.).!.~.{.].^./.(._.:.<.[.}.            ",
"            |.1.2.3.4.5.o 6.7.8.9.0.a.b.c.d.e.f.g.h.            ",
"            i.j.k.6.l.l.m.n.o.p.q.r.s.t.u.v.w.x.y.z.            ",
"            A.B.C.D.E.F.G.H.I.J.K.L.M.N._.O.P.Q.R.S.            ",
"            T.U.V.W.X.Y.Z.`. +.+++[ @+#+$+%+&+*+=+-+            ",
"          ;+>+,+'+)+!+~+{+]+^+/+(+_+u.:+<+[+}+|+1+2+            ",
"    3+4+5+6+7+8+9+0+a+b+c+d+e+f+g+h+i+j+k+l+m+n+o+p+            ",
"  q+r+s+t+u+v+w+x+y+z+A+B+C+D+E+F+G+H+I+l+J+K+L+M+N+            ",
"  O+P+Q+s+t+R+S+T+O.U+V+W+X+Y+Z+`+ @.@+@@@#@$@%@&@*@=@          ",
"  -@;@P+Q+>@,@5+'@)@!@~@{@]@^@/@(@_@:@<@[@}@|@1@2@3@4@5@        ",
"  6@7@8@P+9@>@0@a@b@c@d@e@f@g@h@i@j@k@l@m@n@o@p@q@r@s@t@u@      ",
"  v@s+w@8@P+Q+s+,@x@y@z@A@B@C@D@E@F@G@H@I@J@K@L@M@N@O@P@Q@R@    ",
"  S@T@>@U@8@P+Q+s+V@r@W@X@Y@Z@`@ #.#+#@###$#t@M@%#&#P@0@,@*#=@  ",
"  =#-#V@s+7@;@P+Q+>@t+-#;#>#,#'#)#!#~#{#Q@3@%#]#^#>@r+Q+/#9@4+  ",
"  5@L@P@V@(#7@;@P+9@>@t+O@_#:#<#[#}#|#1#0@>@r+2#9@2#2#Q+/#9@3#  ",
"    4#6+0@V@(#U@8@P+9@s+t+O@u+T@5#6#Q+2#7#8#8#r+7#6#9@/#w@2#9#  ",
"      0#5+u+V@>@w@8@P+/#9@w@7@/#7#s+5#a#>@(#8#7#2#9@/#b#c#7#!#  ",
"        d#e#_#,@>@U@;@P+w@s+t+V@^#t+f#>@(#8#7#2#9@g#h#i#j#8#k#  ",
"          l#m#&#T@a#w@n#(#T@,@^#t+f#>@(#8#7#6#9@/#o#p#q#r#5#s#  ",
"            t#u#_#O@5#Q+(#,@^#t+f#>@(#8#7#6#9@/#w@v#w#x#y#;#z#  ",
"              A#B#-#,@8#s+^#5#f#>@(#8#r+6#2#7#5#s@C#D#E#F#G#    ",
"                H#4@&#f#s+5#a#>@s+s+s+f#s@I#J#K#L#z#            ",
"                  M#N#P@>@f#f#f#t+O#P#N#Q#R#                    ",
"                    S#T#^#V@U#V#W#~#                            ",
"                      X#Y#Z#                                    "};
